<?xml version="1.0" standalone="no"?><!DOCTYPE svg PUBLIC "-//W3C//DTD SVG 1.1//EN" "http://www.w3.org/Graphics/SVG/1.1/DTD/svg11.dtd"><svg t="1593904930726" class="icon" viewBox="0 0 1024 1024" version="1.1" xmlns="http://www.w3.org/2000/svg" p-id="5109" width="32" height="32" xmlns:xlink="http://www.w3.org/1999/xlink"><defs><style type="text/css"></style></defs><path d="M931.607098 176.851787H459.277181l-13.308673-44.020995c-5.11872-17.147713-20.858785-28.92077-38.774307-28.92077H92.136966c-22.394401 0-40.565859 18.043489-40.565859 40.437891V879.268183c0 22.394401 18.043489 40.565859 40.437891 40.565858H931.607098c22.394401 0 40.437891-18.171457 40.565859-40.565858V217.289678c0-22.266433-18.171457-40.437891-40.565859-40.437891z" fill="#FFA000" p-id="5110"></path><path d="M867.87903 869.414646H155.865034c-22.394401 0-40.565859-18.043489-40.565859-40.43789V279.226193c0-22.394401 18.043489-40.565859 40.437891-40.565858h712.141964c22.394401 0 40.565859 18.043489 40.565859 40.43789V828.976756c0 22.394401-18.171457 40.565859-40.565859 40.43789z" fill="#FFFFFF" p-id="5111"></path><path d="M931.607098 919.834041H92.136966c-22.394401 0-40.565859-18.043489-40.565859-40.43789V355.367158c0-22.394401 18.043489-40.565859 40.437891-40.565858H931.607098c22.394401 0 40.565859 18.043489 40.565859 40.43789v524.028993c-0.127968 22.394401-18.171457 40.565859-40.565859 40.565858z" fill="#FFCA28" p-id="5112"></path><path d="M379.553112 482.311422H156.76081c-11.133217 0-20.218945-9.085729-20.218945-20.346913 0-11.133217 9.085729-20.218945 20.218945-20.218945h222.92027c11.133217 0 20.218945 9.085729 20.346913 20.218945-0.127968 11.261185-9.213697 20.346913-20.474881 20.346913 0.127968 0 0 0 0 0z m0 137.693577H156.76081c-11.133217 0-20.218945-9.085729-20.218945-20.346914 0-11.133217 9.085729-20.218945 20.218945-20.218945h222.92027c11.133217 0 20.218945 9.085729 20.346913 20.218945-0.127968 11.261185-9.213697 20.346913-20.474881 20.346914 0.127968 0 0 0 0 0z" fill="#FFFFFF" p-id="5113"></path><path d="M844.972757 768.703824l-109.540615-72.301924c-3.327168-2.303424-7.806048-2.303424-11.133217 0l-109.540615 72.429892c-4.734816 3.071232-11.005249 1.791552-14.07648-2.815296-1.151712-1.663584-1.663584-3.583104-1.663585-5.630592V313.393652c0-11.133217 8.701825-20.218945 19.32317-20.218946h222.92027c10.621345 0 19.323169 9.085729 19.323169 20.218946v446.864284c0.127968 5.502624-4.350912 10.109473-9.981505 10.23744-1.91952 0-3.967008-0.63984-5.630592-1.791552z" fill="#F44336" p-id="5114"></path></svg>